<svg width="87" height="102" viewBox="0 0 87 102" fill="none" xmlns="http://www.w3.org/2000/svg">
<path fill-rule="evenodd" clip-rule="evenodd" d="M66.644 14L75.9459 81.8427L76.7816 88.649C77.0508 90.8417 75.4916 92.8375 73.2989 93.1067L14.7387 100.297C12.546 100.566 10.5502 99.007 10.281 96.8143L1.26524 23.3868C1.13063 22.2904 1.91026 21.2925 3.00659 21.1579C3.01352 21.1571 3.02045 21.1563 3.02738 21.1555L7.88575 20.6105M11.8143 20.1698L16.4013 19.6553Z" fill="white"/>
<path d="M67.8824 13.8302C67.7886 13.1463 67.1582 12.6678 66.4742 12.7616C65.7903 12.8554 65.3118 13.4859 65.4056 14.1698L66.644 14L67.8824 13.8302ZM75.9459 81.8427L77.1866 81.6904C77.1859 81.6846 77.1851 81.6788 77.1843 81.6729L75.9459 81.8427ZM76.7816 88.649L78.0223 88.4967L76.7816 88.649ZM73.2989 93.1067L73.4512 94.3474L73.2989 93.1067ZM14.7387 100.297L14.891 101.538L14.7387 100.297ZM10.281 96.8143L11.5217 96.662L10.281 96.8143ZM3.02738 21.1555L3.16672 22.3977L3.02738 21.1555ZM8.02509 21.8527C8.71114 21.7758 9.20491 21.1572 9.12796 20.4712C9.051 19.7851 8.43246 19.2913 7.7464 19.3683L7.88575 20.6105L8.02509 21.8527ZM11.6749 18.9276C10.9889 19.0046 10.4951 19.6231 10.5721 20.3092C10.649 20.9952 11.2676 21.489 11.9536 21.412L11.8143 20.1698L11.6749 18.9276ZM16.5407 20.8975C17.2267 20.8205 17.7205 20.202 17.6435 19.5159C17.5666 18.8299 16.948 18.3361 16.262 18.4131L16.4013 19.6553L16.5407 20.8975ZM66.644 14L65.4056 14.1698L74.7075 82.0125L75.9459 81.8427L77.1843 81.6729L67.8824 13.8302L66.644 14ZM75.9459 81.8427L74.7052 81.9951L75.5409 88.8014L76.7816 88.649L78.0223 88.4967L77.1866 81.6904L75.9459 81.8427ZM76.7816 88.649L75.5409 88.8014C75.726 90.3088 74.654 91.6809 73.1466 91.866L73.2989 93.1067L73.4512 94.3474C76.3291 93.994 78.3756 91.3746 78.0223 88.4967L76.7816 88.649ZM73.2989 93.1067L73.1466 91.866L14.5863 99.0563L14.7387 100.297L14.891 101.538L73.4512 94.3474L73.2989 93.1067ZM14.7387 100.297L14.5863 99.0563C13.0789 99.2414 11.7068 98.1694 11.5217 96.662L10.281 96.8143L9.04032 96.9666C9.39368 99.8445 12.0131 101.891 14.891 101.538L14.7387 100.297ZM10.281 96.8143L11.5217 96.662L2.50592 23.2344L1.26524 23.3868L0.0245556 23.5391L9.04032 96.9666L10.281 96.8143ZM1.26524 23.3868L2.50592 23.2344C2.45544 22.8233 2.7478 22.4491 3.15893 22.3986L3.00659 21.1579L2.85426 19.9173C1.07271 20.136 -0.194191 21.7576 0.0245556 23.5391L1.26524 23.3868ZM3.00659 21.1579L3.15893 22.3986C3.16153 22.3983 3.16412 22.398 3.16672 22.3977L3.02738 21.1555L2.88804 19.9133C2.87677 19.9145 2.86551 19.9159 2.85426 19.9173L3.00659 21.1579ZM3.02738 21.1555L3.16672 22.3977L8.02509 21.8527L7.88575 20.6105L7.7464 19.3683L2.88804 19.9133L3.02738 21.1555ZM11.8143 20.1698L11.9536 21.412L16.5407 20.8975L16.4013 19.6553L16.262 18.4131L11.6749 18.9276L11.8143 20.1698Z" fill="#1F64E7"/>
<path fill-rule="evenodd" clip-rule="evenodd" d="M64.1121 18.2692L72.5317 79.7529L73.289 85.9212C73.533 87.9083 72.139 89.7146 70.1754 89.9557L17.7334 96.3948C15.7699 96.6359 13.9803 95.2204 13.7363 93.2333L5.58627 26.8568C5.45165 25.7605 6.23129 24.7626 7.32762 24.628L13.8152 23.8314" fill="#E8F0FE"/>
<path d="M23.644 1.25H69.2006C69.9297 1.25 70.6293 1.53933 71.145 2.05469L84.5883 15.4902C85.1041 16.0059 85.3939 16.7053 85.394 17.4346V80C85.394 81.5188 84.1628 82.75 82.644 82.75H23.644C22.1252 82.75 20.894 81.5188 20.894 80V4C20.894 2.48122 22.1252 1.25 23.644 1.25Z" fill="white" stroke="#1F64E7" stroke-width="2.5"/>
<path d="M69.644 2.40283V14C69.644 15.6569 70.9871 17 72.644 17H80.5776" stroke="#1F64E7" stroke-width="2.5" stroke-linecap="round" stroke-linejoin="round"/>
<path d="M30.9721 68H56.9721M30.9721 17H56.9721H30.9721ZM30.9721 29H73.9721H30.9721ZM30.9721 42H73.9721H30.9721ZM30.9721 55H73.9721H30.9721Z" stroke="#75A4FE" stroke-width="2.5" stroke-linecap="round" stroke-linejoin="round"/>
</svg>
